<svg width="72" height="72" viewBox="0 0 72 72" fill="none" xmlns="http://www.w3.org/2000/svg">
<path d="M36.1844 72C35.8094 72 35.3594 72 34.9844 71.85L12.3344 65.55C10.5344 65.025 9.25938 63.45 9.03438 61.65L4.00938 4.95C3.93437 3.675 4.30938 2.475 5.13438 1.5C5.95938 0.6 7.15937 0 8.43437 0H64.0094C65.2844 0 66.4844 0.525 67.3094 1.5C68.1344 2.4 68.5844 3.675 68.4344 4.95L63.4094 61.65C63.2594 63.525 61.9094 65.1 60.1094 65.55L37.3844 71.85C37.0094 71.925 36.5594 72 36.1844 72Z" fill="white"/>
<path d="M13.4625 61.2L8.4375 4.5H64.0125L58.9875 61.2L36.2625 67.5L13.6125 61.2H13.4625Z" fill="#264DE4"/>
<path d="M54.5508 57.6063L58.9008 9.15625H36.1758V62.7063L54.5508 57.6063Z" fill="#2965F1"/>
<path d="M19.9742 30.141L20.5742 37.116H36.0992V30.141H19.8992H19.9742ZM19.3742 23.016H36.1742V16.041H18.6992L19.2992 23.016H19.3742ZM36.1742 48.216L28.4492 46.116L27.9242 40.566H20.9492L21.9242 51.516L36.1742 55.491V48.216Z" fill="#EBEBEB"/>
<path d="M36.1758 30.1535V37.1285H44.7258L43.9008 46.1285L36.1758 48.2285V55.4285L50.4258 51.4535V50.2535C50.5008 50.2535 52.1508 31.9535 52.1508 31.9535L52.3008 30.0785L53.5758 15.9785H36.1758V22.9535H46.0008L45.4008 30.0785H36.2508L36.1758 30.1535Z" fill="white"/>
</svg>
