<svg width="72" height="72" viewBox="0 0 72 72" fill="none" xmlns="http://www.w3.org/2000/svg">
<path d="M36.3483 71.8425C34.8483 71.8425 33.3558 71.4676 32.0808 70.7176L11.8758 59.4163L11.5758 59.2663C11.0508 58.9664 10.5258 58.6664 10.1508 58.2164C9.17584 57.0915 8.80084 55.6742 9.10084 54.2493L16.8108 5.01698C17.1858 2.54973 19.1283 0.524945 21.6033 0.0749922H21.6783C21.9783 0.0749922 22.3533 0 22.6533 0C23.5533 0 24.4533 0.224977 25.1958 0.599937C26.3208 1.12488 27.2883 2.02479 27.8883 3.14217L31.9308 10.7764C33.0558 9.5765 34.6233 8.83408 36.2733 8.83408C37.9233 8.83408 36.2733 8.83408 36.3483 8.83408C38.5158 8.83408 40.4658 10.1089 41.5158 11.9763L44.5083 17.6607L47.5758 14.5935C48.4008 13.7686 49.3758 13.2436 50.4183 13.0186C50.8683 12.9437 51.3183 12.8687 51.7683 12.8687C52.2183 12.8687 51.9183 12.8687 51.9933 12.8687C52.5183 12.8687 53.1183 13.0186 53.6433 13.1686C55.7358 13.8436 57.3108 15.6359 57.6858 17.8106L63.5958 54.5568C63.8958 56.2066 63.2208 57.849 61.8708 58.8989C61.7958 58.8989 61.6458 59.0488 61.5708 59.1238C61.4958 59.1238 61.4208 59.1988 61.2708 59.2738L40.4658 70.8751C39.1908 71.625 37.6983 72 36.1983 72L36.3483 71.85V71.8425Z" fill="white"/>
<path d="M13.5859 55.2921L21.2959 5.75229C21.3709 5.15236 21.8959 4.62741 22.4959 4.55242C23.0959 4.47743 23.6959 4.7774 23.9959 5.30234L32.0059 20.1958L35.2234 14.1364C35.4484 13.6865 35.9734 13.3865 36.4984 13.3865C37.0234 13.3865 37.5484 13.6865 37.7734 14.1364L59.4034 55.2246H13.6609L13.5859 55.2996V55.2921Z" fill="#FFA000"/>
<path d="M40.3084 35.9809L31.9984 20.1875L13.5859 55.2163L40.3084 35.9059V35.9809Z" fill="#F57C00"/>
<path d="M59.3205 55.2949L53.4105 18.6238C53.3355 18.0988 52.9605 17.6489 52.4355 17.4989C51.9105 17.3489 51.3855 17.4989 51.0105 17.8738L13.668 55.2949L34.323 66.8962C35.598 67.6461 37.1655 67.6461 38.5155 66.8962L59.3955 55.2949H59.3205Z" fill="#FFCA28"/>
<path d="M53.3292 18.6241C53.2542 18.0991 52.8792 17.6492 52.3542 17.4992C51.8292 17.3492 51.3042 17.4992 50.9292 17.8742L43.5192 25.2834L37.6842 14.207C37.4592 13.7571 36.9342 13.4571 36.4092 13.4571C35.8842 13.4571 35.3592 13.7571 35.1342 14.207L31.9167 20.2664L23.9142 5.38047C23.6142 4.85552 23.0142 4.55555 22.4142 4.63054C21.8142 4.70554 21.3642 5.23048 21.2142 5.83042L13.5117 55.3703L13.7367 55.5202L50.9367 18.3241C51.3117 17.9492 51.9117 17.7992 52.3617 17.9492C52.8117 18.0991 53.2617 18.5491 53.3367 19.074L59.2467 55.4453L53.3367 18.6991V18.6241H53.3292ZM13.6617 55.2203L21.2967 6.13039C21.3717 5.53045 21.8967 5.00551 22.4967 4.93051C23.0967 4.85552 23.6967 5.15549 23.9967 5.68043L32.0067 20.5739L35.2242 14.5145C35.4492 14.0646 35.9742 13.7646 36.4992 13.7646C37.0242 13.7646 37.5492 14.0646 37.7742 14.5145L43.4592 25.3659L13.6617 55.2203Z" fill="white" fill-opacity="0.4"/>
<path opacity="0.2" d="M38.4334 66.5173C37.1584 67.2672 35.5909 67.2672 34.2409 66.5173L13.5859 54.916V55.216L34.2409 66.8173C35.5159 67.5672 37.0834 67.5672 38.4334 66.8173L59.3134 55.216V54.916L38.4334 66.5173Z" fill="#A52714"/>
<path d="M53.3284 18.6241C53.2534 18.0991 52.8784 17.6492 52.3534 17.4992C51.8284 17.3492 51.3034 17.4992 50.9284 17.8742L43.5184 25.2834L37.6834 14.207C37.4584 13.7571 36.9334 13.4571 36.4084 13.4571C35.8834 13.4571 35.3584 13.7571 35.1334 14.207L31.9909 20.2664L23.9884 5.38047C23.6884 4.85552 23.0884 4.55555 22.4884 4.63054C21.8884 4.70554 21.4384 5.23048 21.2884 5.83042L13.5859 55.2953L34.1659 66.8966C35.4409 67.6465 37.0084 67.6465 38.3584 66.8966L59.1634 55.2953L53.2534 18.6241H53.3284Z" fill="url(#paint0_linear_1508_1156)"/>
<defs>
<linearGradient id="paint0_linear_1508_1156" x1="10.5709" y1="18.2641" x2="67.0337" y2="41.6644" gradientUnits="userSpaceOnUse">
<stop stop-color="white" stop-opacity="0.1"/>
<stop offset="0.1" stop-color="white" stop-opacity="0"/>
<stop offset="0.6" stop-color="white" stop-opacity="0"/>
<stop offset="1" stop-color="white" stop-opacity="0"/>
</linearGradient>
</defs>
</svg>
