<svg width="72" height="72" viewBox="0 0 72 72" fill="none" xmlns="http://www.w3.org/2000/svg">
<g clip-path="url(#clip0_1508_1136)">
<path d="M67.5 0H4.5C2.01472 0 0 2.01472 0 4.5V67.5C0 69.9853 2.01472 72 4.5 72H67.5C69.9853 72 72 69.9853 72 67.5V4.5C72 2.01472 69.9853 0 67.5 0Z" fill="white"/>
<path d="M67.5 4.5H4.5V67.5H67.5V4.5Z" fill="#F7DF1E"/>
<path d="M46.7875 53.7004C48.0625 55.8004 49.7125 57.3004 52.6375 57.3004C55.5625 57.3004 56.6875 56.1004 56.6875 54.3754C56.6875 52.6504 55.1125 51.6004 52.4125 50.4754L50.9125 49.8754C46.6375 48.0754 43.7875 45.7504 43.7875 40.9504C43.7875 36.1504 47.1625 33.1504 52.4875 33.1504C57.8125 33.1504 58.9375 34.4254 60.8875 37.8754L56.3125 40.8004C55.2625 39.0004 54.2125 38.2504 52.4875 38.2504C50.7625 38.2504 49.6375 39.3754 49.6375 40.8004C49.6375 42.2254 50.7625 43.2754 53.3125 44.4004L54.8125 45.0004C59.8375 47.1754 62.6875 49.3504 62.6875 54.3004C62.6875 59.2504 58.4875 62.5504 52.8625 62.5504C47.2375 62.5504 43.7875 59.9254 42.0625 56.4754L46.8625 53.7004H46.7875ZM25.8625 54.2254C26.7625 55.8754 27.6625 57.3004 29.6875 57.3004C31.7125 57.3004 32.8375 56.5504 32.8375 53.5504V33.4504H38.7625V53.6254C38.7625 59.7754 35.1625 62.5504 29.9125 62.5504C24.6625 62.5504 22.4125 60.0754 21.0625 57.1504L25.8625 54.2254Z" fill="black"/>
</g>
<defs>
<clipPath id="clip0_1508_1136">
<rect width="72" height="72" fill="white"/>
</clipPath>
</defs>
</svg>
