<svg width="72" height="72" viewBox="0 0 72 72" fill="none" xmlns="http://www.w3.org/2000/svg">
<path fill-rule="evenodd" clip-rule="evenodd" d="M60.5373 34.2128C59.1126 34.2128 57.6954 33.5378 56.8706 32.3378L51.3294 24.5452C50.3546 23.1952 50.2046 21.4027 50.9544 19.9027C51.2544 19.3026 51.6293 18.8526 52.1542 18.4776C50.9544 16.9776 49.1623 16.0776 47.1378 16.0776C45.1133 16.0776 41.8215 17.9526 40.9967 20.6452C40.6218 21.8452 39.8719 22.8202 38.8222 23.3452C38.1473 23.7202 37.4725 23.8702 36.7226 23.8702C35.9728 23.8702 35.8228 23.8702 35.373 23.6452C34.0982 23.2702 32.7485 22.9702 31.4063 22.8202C30.0566 22.6702 28.8569 21.9952 28.1146 20.9452C27.3723 19.8952 27.1398 18.4701 27.4397 17.2026C27.6647 16.2276 28.0396 15.3276 28.4145 14.4351C29.4643 12.0351 30.889 9.86757 32.756 7.99255C34.6306 6.11753 36.8726 4.62502 39.2721 3.65001C41.7465 2.60001 44.4384 2 47.2128 2C49.9872 2 52.6791 2.525 55.1535 3.57501C57.6279 4.62502 59.795 6.05003 61.6695 7.91755C63.5441 9.78507 65.0363 11.9601 66.011 14.3601C66.4609 15.3351 66.7609 16.3851 67.0608 17.4276C68.4105 17.6526 69.5353 18.5526 70.2026 19.7526C70.9524 21.2527 70.8775 23.0452 69.8277 24.3952L64.2864 32.1878C63.4616 33.3878 62.1119 34.0628 60.6198 34.0628L60.5448 34.2128H60.5373Z" fill="white"/>
<path fill-rule="evenodd" clip-rule="evenodd" d="M58.2804 69.7912C57.6056 69.7912 56.8558 69.6412 56.2559 69.2662C55.1311 68.6662 54.3063 67.6162 53.9314 66.4237H39.0323C36.9327 66.4237 35.1406 64.9987 34.6907 62.9811C34.2408 60.9561 35.2156 58.8636 37.0902 57.9636C37.2402 57.9636 37.3152 57.8136 37.4651 57.8136H37.6151C39.3397 56.9886 40.8319 55.9386 42.2565 54.6711C42.4065 54.5211 42.6315 54.3711 42.7814 54.1461L43.3063 53.6211C43.5313 53.3961 43.7562 53.1711 43.9062 52.9461C44.731 51.821 46.0807 51.221 47.4229 51.221H54.0139C54.3138 50.021 55.1386 48.971 56.3384 48.3785C57.0132 48.0785 57.6881 47.8535 58.3629 47.8535C59.0378 47.8535 60.2375 48.1535 60.9873 48.6785L70.1203 55.1961C71.32 56.0211 71.9948 57.3711 71.9948 58.8636C71.9948 60.3561 71.32 61.7061 70.1203 62.5311L60.9873 69.0487C60.2375 69.5737 59.2627 69.8737 58.3629 69.8737L58.2879 69.7987L58.2804 69.7912Z" fill="white"/>
<path fill-rule="evenodd" clip-rule="evenodd" d="M66.066 21.8522L60.5248 29.6448L54.9835 21.8522H58.0503C57.8254 16.0847 53.034 11.4422 47.1928 11.4422C41.3516 11.4422 38.0598 14.7347 36.7851 19.2347C35.2105 18.7097 33.4934 18.4097 31.8438 18.2597C32.0687 17.5097 32.2936 16.8347 32.5936 16.0847C33.4184 14.2097 34.5431 12.4922 36.0353 10.9921C37.46 9.56714 39.1771 8.36713 41.1267 7.62462C43.0762 6.79961 45.1682 6.34961 47.3428 6.34961C49.5173 6.34961 51.6093 6.79961 53.5589 7.62462C55.4334 8.44963 57.1505 9.57464 58.6502 10.9921C60.0749 12.4172 61.2746 14.1347 62.0919 16.0847C62.8418 17.8847 63.2917 19.8272 63.3666 21.8522H66.4335H66.0585H66.066Z" fill="#FF7F69"/>
<path fill-rule="evenodd" clip-rule="evenodd" d="M58.2836 65.296V61.9284H39.043C39.1929 61.9284 39.3429 61.7784 39.4179 61.7034C41.5174 60.7284 43.4595 59.3784 45.1091 57.8109C45.3341 57.5859 45.559 57.3609 45.784 57.2109C46.0089 56.9859 46.2338 56.7609 46.4588 56.4609C46.7587 56.1609 46.9837 55.8609 47.2836 55.5609H58.2161V52.1934L67.3491 58.7109L58.2161 65.2285L58.2911 65.3035L58.2836 65.296Z" fill="#7D65F5"/>
<path fill-rule="evenodd" clip-rule="evenodd" d="M4.5158 66.4896C2.04136 66.4896 0.0243163 64.4645 0.0243163 61.997V55.6295C0.0243163 53.1545 2.04886 51.1369 4.5158 51.1369H6.16543L0.84913 43.7194C-0.12565 42.3694 -0.275616 40.5769 0.474215 39.0768C1.14906 37.7268 2.49876 36.8268 3.99092 36.6768C4.29085 34.7268 4.89072 32.8593 5.64055 31.0593C6.99025 27.9167 8.85732 25.1417 11.1818 22.7492C13.5813 20.3492 16.3481 18.4817 19.4899 17.2067C22.7067 15.8566 26.0809 15.1816 29.5977 15.1816C33.1144 15.1816 30.8724 15.1816 31.6222 15.2566C33.7217 15.4066 35.7388 15.8566 37.6883 16.4567C38.5131 16.6817 39.113 16.9817 39.7879 17.2817C42.8547 18.5567 45.629 20.4242 48.021 22.8242C50.413 25.2242 52.2875 27.9917 53.5622 31.1343C54.9119 34.3518 55.5868 37.7268 55.5868 41.2444C55.5868 44.7619 54.9119 48.1369 53.5622 51.3544C52.4375 54.122 50.7954 56.597 48.7708 58.772C48.7708 58.772 48.021 59.597 47.946 59.597C47.796 59.747 47.2712 60.272 47.1962 60.347C45.2466 62.147 43.1546 63.5645 40.7551 64.6896C40.4552 64.8396 40.1553 64.9896 39.7804 65.1396H39.6304C37.4559 66.0396 35.1389 66.5646 32.6645 66.5646H4.5158V66.4896ZM30.8049 51.1369C36.2711 51.1369 40.8376 46.7194 40.9126 41.2519V41.1019C40.9126 34.8843 35.8962 29.8668 29.6801 29.8668C23.464 29.8668 20.9221 32.7843 19.1975 36.9093C20.1723 37.2843 21.0721 38.0343 21.522 39.0093C22.2718 40.5094 22.1968 42.3019 21.1471 43.6519L15.8308 51.0694H30.7299L30.8049 51.1444V51.1369Z" fill="white"/>
<path fill-rule="evenodd" clip-rule="evenodd" d="M51.174 41.1014C51.174 44.019 50.5742 46.794 49.4494 49.4865C48.4746 51.7365 47.1249 53.829 45.4828 55.629C45.2578 55.8541 45.0329 56.0791 44.8079 56.3041L44.2081 56.9041C42.6334 58.4041 40.7664 59.6041 38.8168 60.5716C38.5169 60.7216 38.2919 60.7966 37.992 60.9466C36.3424 61.6216 34.6252 61.9966 32.8257 61.9966H4.51953V55.629H30.8011C38.7418 55.629 45.2503 49.2615 45.4003 41.3264V41.1014C45.4003 32.4164 38.3594 25.3738 29.6764 25.3738C20.9933 25.3738 13.9524 32.4164 13.9524 41.1014H17.6191L11.103 50.2365L4.58702 41.1014H8.25369C8.25369 38.1839 8.85355 35.4089 9.9783 32.7164C11.103 30.1663 12.6027 27.8488 14.6198 25.8988C16.5693 23.9488 18.8863 22.3813 21.4357 21.2563C24.0601 20.1313 26.902 19.5312 29.8188 19.5312C32.7357 19.5312 30.9436 19.5312 31.5434 19.5312C33.2681 19.6813 34.9102 19.9813 36.4848 20.5063C37.0847 20.7313 37.6096 20.8813 38.2094 21.1813C40.7589 22.3063 43.0758 23.8063 45.0254 25.8238C46.975 27.7738 48.5421 30.0913 49.6669 32.6414C50.7916 35.2664 51.3915 38.1089 51.3915 41.0264L51.1665 41.1014H51.174Z" fill="#F565CB"/>
</svg>
