<svg width="72" height="72" viewBox="0 0 72 72" fill="none" xmlns="http://www.w3.org/2000/svg">
<g clip-path="url(#clip0_1508_1142)">
<path d="M61.35 0H10.65C4.76817 0 0 4.76817 0 10.65V61.35C0 67.2318 4.76817 72 10.65 72H61.35C67.2318 72 72 67.2318 72 61.35V10.65C72 4.76817 67.2318 0 61.35 0Z" fill="white"/>
<path d="M61.35 4.5H10.65C7.25345 4.5 4.5 7.25345 4.5 10.65V61.35C4.5 64.7466 7.25345 67.5 10.65 67.5H61.35C64.7466 67.5 67.5 64.7466 67.5 61.35V10.65C67.5 7.25345 64.7466 4.5 61.35 4.5Z" fill="#3178C6"/>
<path d="M61.35 4.5H10.65C7.25345 4.5 4.5 7.25345 4.5 10.65V61.35C4.5 64.7466 7.25345 67.5 10.65 67.5H61.35C64.7466 67.5 67.5 64.7466 67.5 61.35V10.65C67.5 7.25345 64.7466 4.5 61.35 4.5Z" fill="#3178C6"/>
<path fill-rule="evenodd" clip-rule="evenodd" d="M43.5133 54.5965V60.7465C44.4883 61.2715 45.6883 61.6465 47.0383 61.8715C48.3883 62.0965 49.8133 62.2465 51.3883 62.2465C52.9633 62.2465 54.2383 62.0965 55.5883 61.7965C56.9383 61.4965 58.0633 61.0465 59.1133 60.3715C60.0883 59.6965 60.9133 58.8715 61.5133 57.8215C62.1133 56.7715 62.4133 55.4965 62.4133 53.9215C62.4133 52.3465 62.2633 51.8215 61.8883 50.9965C61.5133 50.1715 61.0633 49.4215 60.4633 48.7465C59.8633 48.0715 59.1133 47.4715 58.2133 47.0215C57.3133 46.5715 56.3383 46.0465 55.2133 45.5215C54.3883 45.2215 53.7133 44.8465 53.0383 44.5465C52.3633 44.2465 51.8383 43.9465 51.3883 43.5715C50.9383 43.2715 50.5633 42.8965 50.3383 42.5215C50.1133 42.1465 49.9633 41.7715 49.9633 41.2465C49.9633 40.7215 50.0383 40.4215 50.2633 40.1215C50.4883 39.8215 50.7883 39.5215 51.1633 39.2215C51.5383 38.9965 52.0633 38.7715 52.6633 38.6215C53.2633 38.4715 53.8633 38.3965 54.6133 38.3965C55.3633 38.3965 55.6633 38.3965 56.2633 38.5465C56.8633 38.6215 57.3883 38.7715 57.9883 38.9215C58.5883 39.0715 59.1133 39.2965 59.6383 39.5215C60.1633 39.7465 60.6883 40.0465 61.1383 40.3465V34.5715C60.2383 34.1965 59.1883 33.9715 58.0633 33.7465C56.9383 33.5215 55.6633 33.5215 54.2383 33.5215C52.8133 33.5215 51.3883 33.6715 50.1133 33.9715C48.8383 34.2715 47.6383 34.7965 46.6633 35.4715C45.6883 36.1465 44.8633 36.9715 44.3383 38.0215C43.7383 39.0715 43.4383 40.2715 43.4383 41.6965C43.4383 43.1215 43.9633 45.0715 45.0133 46.4215C46.0633 47.6965 47.7133 48.8215 49.8133 49.7215C50.6383 50.0965 51.4633 50.3965 52.2133 50.7715C52.9633 51.1465 53.5633 51.4465 54.0883 51.8215C54.6133 52.1965 55.0633 52.5715 55.3633 53.0215C55.6633 53.4715 55.8133 53.9215 55.8133 54.4465C55.8133 54.9715 55.7383 55.1965 55.5133 55.5715C55.2883 55.9465 55.0633 56.1715 54.6133 56.4715C54.1633 56.7715 53.7133 56.9215 53.1133 57.0715C52.5133 57.2215 51.8383 57.2965 51.0883 57.2965C49.7383 57.2965 48.4633 57.0715 47.1133 56.6215C45.8383 56.1715 44.5633 55.4215 43.4383 54.5215L43.5133 54.5965ZM33.1633 39.4465H41.0383V34.4215H18.9883V39.4465H26.8633V61.9465H33.0883V39.4465H33.1633Z" fill="white"/>
</g>
<defs>
<clipPath id="clip0_1508_1142">
<rect width="72" height="72" fill="white"/>
</clipPath>
</defs>
</svg>
