<svg xmlns="http://www.w3.org/2000/svg" width="43" height="43" fill="none"><g fill="#F8F9FA" clip-path="url(#a)"><path d="M40.95 18.195c-.3-.794-.875-1.47-1.38-2.145a59 59 0 0 0-1.425-1.826 1.4 1.4 0 0 0 .12-.376c.214-1.308.423-2.615.597-3.929.083-.629.18-1.256.227-1.89q.036-.473.07-.948.011-.139.029-.285c.147-.128.262-.295.323-.494.18-.595-.087-1.37-.743-1.552-1.316-.364-2.683-.671-4.045-.787-.687-.059-1.42-.127-2.102-.029-.24.035-.578.11-.864.245a.87.87 0 0 0-.602.462c-.28.61-.278 1.387-.407 2.044l-.007.034a42 42 0 0 0-2.73-2.1 18.6 18.6 0 0 0-2.405-1.458 5.7 5.7 0 0 0-1.174-.41c-.358-.088-.706-.078-1.06-.04-.322-.547-.988-.702-1.56-.464a81 81 0 0 0-15.635 8.642c-.674.475-1.319.987-1.96 1.504-.332.267-.631.567-.934.864-.314.31-.523.67-.75 1.045-.193.319.06.873.489.737.324-.103.675-.179.982-.324.329-.154.656-.367.967-.556l.211-.131q-.069.335-.122.675a57 57 0 0 0-.283 1.978l-.23 1.901c-.085.691-.098 1.495.222 2.13.301.598 1.094.612 1.483.103.229-.3.278-.569.383-.919.11-.368.18-.685.205-1.073l.128-1.99c.041-.636.064-1.273.083-1.91.02-.673-.013-1.33-.023-2q0-.061-.009-.118c1.165-.767 2.316-1.549 3.507-2.276a79.5 79.5 0 0 1 12.346-6.135.9.9 0 0 0 .298-.19c.123.1.248.197.385.276.317.184.625.378.94.566.664.398 1.29.845 1.894 1.327.582.465 1.15.947 1.722 1.424q.427.357.848.722c.626.544 1.398 1.344 2.301 1.294.533-.03 1.009-.408 1.245-.886.339-.684.128-1.386.158-2.107.012-.279.03-.566.032-.854q.148.024.282.043c.58.083 1.158.163 1.736.263.947.163 1.86.363 2.785.632l-.192.755c-.173.674-1.366 8.091-1.341 8.122l-.016.08a70 70 0 0 0-.349 3.043c-.098 1.01-.2 2.039-.187 3.055.007.6.397 1.142 1.03 1.186.635.044 1.104-.434 1.187-1.031.138-1.006.165-2.04.193-3.055q.012-.429.02-.858c.405.547.81 1.077 1.332 1.538.398.35 1.113.236 1.483-.087.435-.377.486-.945.293-1.457zM21.216 33.912a.67.67 0 0 0-.068-.348 1 1 0 0 0-.25-.455l-.26-.231h-.002a1.5 1.5 0 0 0-.3-.152l-.008-.004c-.058-.026.02.004-.18-.038a1 1 0 0 0-.542-.014l-.333.113-.289.193-.23.26-.16.313q-.104.264-.061.538a.67.67 0 0 0 .068.348.67.67 0 0 0 .154.311.7.7 0 0 0 .226.26q.183.193.444.275l.356.073.364-.023.333-.114.288-.192q.212-.171.311-.416a.7.7 0 0 0 .117-.336.7.7 0 0 0 .025-.36zM31.237 25.962a1 1 0 0 0 .084.07l-.002-.001z"/><path d="M36.705 29.814c-.38-1.759-1.15-3.415-2.314-4.792-1.028-1.216-2.327-2.2-3.708-2.981-1.161-.657-2.374-1.207-3.605-1.715.738-1.648 1.229-3.373.973-5.227-.302-2.193-1.813-4.087-3.995-4.626-2.133-.527-4.635-.194-6.588.805-1.968 1.006-3.56 2.959-3.668 5.23-.074 1.568.527 2.965 1.368 4.229-2.558.15-5.096.821-7.104 2.468-2.8 2.297-3.936 6.014-3.979 9.526-.014 1.176.108 2.36.265 3.524.16 1.178.392 2.316.848 3.414.25.603 1.154.36 1.205-.238.159-1.895-.251-3.8-.254-5.702-.003-1.688.125-3.292.643-4.847.461-1.382 1.166-2.661 2.233-3.617 1.055-.947 2.327-1.506 3.683-1.805a13 13 0 0 1 1.99-.28l.352-.014c.877-.026 1.755.017 2.628.102 1.127.112 1.706-1.267 1.04-2.086-.268-.331-.534-.663-.79-1.005q-.173-.234-.34-.472l-.095-.145q-.089-.137-.173-.278a8 8 0 0 1-.517-1.007 6 6 0 0 1-.12-.3l-.017-.069a7 7 0 0 1-.144-.654 4 4 0 0 1-.028-.216c-.002-.032-.004-.073-.003-.093.01-.208.018-.412.044-.62q0-.014.004-.026a4.223 4.223 0 0 1 .184-.566c.02-.05.099-.218.09-.21a5 5 0 0 1 .433-.651c.012-.016.168-.189.163-.189a5 5 0 0 1 .578-.515c.028-.021.185-.13.197-.142a6.7 6.7 0 0 1 1.313-.632l.072-.02q.35-.103.705-.182c.412-.089.825-.145 1.244-.188l.065-.007q.177-.009.354-.01a7.3 7.3 0 0 1 1.212.092c.032.008.093.023.115.03.123.04.248.072.37.116.068.024.366.164.324.135q.14.08.27.17c.04.029.215.17.194.145q.146.143.275.302.066.084.13.171l.034.06c.087.175.177.345.257.523q.016.037.027.06a5 5 0 0 1 .211 1.02q.006.176.002.354a6 6 0 0 1-.06.705q-.017.114-.038.228c-.004.002-.07.296-.082.336-.14.52-.332 1.026-.55 1.519q-.153.348-.323.688l-.06.116q-.14.26-.28.52c-.448.824-.211 1.77.701 2.138.688.278 1.374.56 2.053.858a37 37 0 0 1 1.429.669l.034.017.273.145a18 18 0 0 1 1.826 1.12q.445.312.864.658.046.04.093.079c.024.02.062.05.08.068l.01.009-.008-.006q.218.202.426.414a9.6 9.6 0 0 1 .979 1.186l.007.013q.103.165.202.336a9 9 0 0 1 .658 1.44c.015.048.034.104.038.12q.06.194.11.39a11 11 0 0 1 .307 1.663q.016.135.027.271c.006.054.015.222.018.248q.045 1.22-.09 2.434-.085.76-.223 1.51l-.056.3-.03.15-.062.3c-.047.24-.09.48-.139.719l-.023.106a51 51 0 0 1-.256 1.125q-.187.784-.384 1.567c-.167.672.08 1.474.812 1.695.67.203 1.471-.103 1.695-.811 1.16-3.682 2.203-7.52 1.367-11.394zM27.74 29.87l-.028-.009z"/><path d="M27.771 29.897s-.005-.005-.008-.006v.001l.008.006z"/><path d="M30.343 29.333c-.392-1.531-1.73-2.126-3.188-2.237a44 44 0 0 0-8.252.153 46 46 0 0 0-3.988.632c-1.283.26-2.904.614-3.272 2.067-.176.69-.166 1.406-.19 2.112q-.044 1.178-.063 2.354c-.013.762 0 1.519.034 2.28.018.407-.015.867.063 1.267.042.215.11.432.182.648q-.233.022-.464.043c-.716.06-.812 1.29-.1 1.44.634.133 1.272.3 1.914.394.626.09 1.26.137 1.887.205 1.284.14 2.57.233 3.858.33 2.548.19 5.097.366 7.647.542.649.045 1.31-.482 1.328-1.155.01-.41-.165-.802-.464-1.054l.024-.117.008-.04q.054-.252.113-.503.226-.968.519-1.917a28.5 28.5 0 0 1 1.59-4.035l.12-.244c.171-.343.357-.682.496-1.04.253-.656.376-1.434.198-2.126zm-11.416 9.345c-1.264-.062-2.527-.128-3.793-.147-.632-.009-1.266-.03-1.898-.028l-.139.002c.116-.418.194-.835.226-1.284.044-.626.107-1.25.135-1.876.056-1.253.124-2.506.213-3.758.019-.268.045-.535.068-.803.03-.368-.006.215.029-.144l.004-.065a.2.2 0 0 0 .034-.044c.027-.005.059-.003.11-.01.345-.05.694-.082 1.039-.131 1.21-.172 2.407-.393 3.625-.52a46 46 0 0 1 6.961-.23c.576.025 1.16.044 1.733.113.028.004.232.046.24.043q.098.031.198.065c-.143-.049-.024-.035.028.01q.003 0 .006.002l-.006-.002.012.012.012.022v-.012q-.002 0-.002-.002l-.002-.001q.002 0 .003.002c-.004-.154.002-.083.008.006q.145.108 0 .001c.005.054.01.114.013.133-.052-.284-.014.063-.015.124q0 .049.002.073a1 1 0 0 0-.036.085c-.05.131-.091.264-.147.394q-.072.166-.153.33l-.061.12q-.281.545-.546 1.1a28.5 28.5 0 0 0-1.44 3.7c-.303.976-.6 1.995-.784 3.017q-2.839-.155-5.677-.297"/></g><defs><clipPath id="a"><path fill="#fff" d="m2.79 0 39.903 2.79-2.79 39.903L0 39.903z"/></clipPath></defs></svg>