<svg width="40" height="40" viewBox="0 0 40 40" fill="none" xmlns="http://www.w3.org/2000/svg">
<g clip-path="url(#clip0_1519_1837)">
<path d="M9.86252 25.4277C8.85813 24.5878 7.64775 24.1638 6.33437 24.3371C4.97469 24.5167 3.72759 25.1866 2.68328 26.0561C1.66611 26.9032 1.06411 28.0688 1.00902 29.395C0.958724 30.6086 1.28687 31.882 1.65733 33.0293C2.07809 34.3307 2.65214 35.593 3.37629 36.7531C3.73637 37.3295 4.13477 37.8804 4.55793 38.4121C5.00024 38.967 5.40902 39.486 6.09006 39.7399C6.20423 39.7822 6.3192 39.7678 6.41821 39.7183C6.49884 39.7838 6.58986 39.8389 6.68886 39.8788C7.15992 40.0688 7.84415 39.9339 8.07888 39.4229C8.34475 38.8457 8.6721 38.2892 8.96112 37.7215C9.25413 37.1475 9.5687 36.5854 9.87769 36.0201C10.5244 34.8361 11.1336 33.6121 11.4921 32.3052C12.1452 29.9267 11.8657 27.1036 9.86172 25.4277H9.86252ZM9.41701 30.0161C9.40024 30.5862 9.30763 31.0421 9.12559 31.6521C8.78467 32.7954 8.24335 33.7894 7.65573 34.8856C7.36272 35.4325 7.06571 35.9778 6.79026 36.5343C6.5204 37.0796 6.3224 37.6201 6.15234 38.1902C6.05972 38.0696 5.96232 37.9483 5.86332 37.8213C5.53916 37.4038 5.24056 36.9646 4.96272 36.5151C4.41741 35.6345 3.94635 34.702 3.58547 33.7303C3.23098 32.777 2.94435 31.7774 2.79984 30.7698C2.66811 29.8485 2.75114 28.8217 3.4218 28.1223C4.05813 27.4589 5.04894 26.991 5.94076 26.7187C6.10683 26.6684 6.36312 26.5998 6.48527 26.5814C6.62499 26.5606 6.77349 26.5591 6.91481 26.5614C6.92359 26.5614 7.23896 26.599 7.19345 26.5846C7.27729 26.6022 7.36112 26.6213 7.44336 26.6461C7.45533 26.6493 7.64695 26.7203 7.65094 26.7171C7.80503 26.7898 7.95194 26.8784 8.09326 26.9734C8.05573 26.9511 8.25134 27.0972 8.26092 27.1068C8.34395 27.181 8.42379 27.2593 8.50044 27.3407C8.56112 27.4046 8.6194 27.4708 8.67609 27.5395C8.67848 27.5483 8.80224 27.7191 8.80543 27.7247C8.91002 27.8844 8.99465 28.0529 9.08727 28.2197C9.10403 28.2493 9.11681 28.2716 9.12639 28.2876C9.13198 28.3052 9.13996 28.3267 9.15034 28.3555C9.20224 28.4984 9.25094 28.6421 9.29086 28.7882C9.3204 28.8984 9.34196 29.0094 9.3683 29.1195C9.37709 29.1571 9.38347 29.1826 9.38906 29.2002C9.38986 29.2249 9.39226 29.2593 9.39545 29.3072C9.41381 29.5427 9.4226 29.7782 9.41621 30.0153L9.41701 30.0161Z" fill="#F8F9FA"/>
<path d="M7.64642 30.6636C7.62885 30.531 7.61129 30.3993 7.59293 30.2668C7.52187 30.0145 7.39412 29.7949 7.20969 29.6089C7.16179 29.5514 7.13304 29.5442 7.04362 29.4756C6.94941 29.3821 6.83764 29.3167 6.70989 29.2807C6.64921 29.2408 6.58454 29.2145 6.51588 29.2017C6.38175 29.1833 6.24762 29.1658 6.11269 29.1474H6.09831C6.08394 29.1474 6.07037 29.1474 6.056 29.1474C5.84762 29.1394 5.65281 29.1833 5.47237 29.2783C5.28474 29.3398 5.12187 29.4436 4.98454 29.5921C4.83684 29.7294 4.73225 29.8923 4.67077 30.0799C4.57576 30.2604 4.53265 30.4552 4.53983 30.6636C4.5582 30.7977 4.57576 30.9318 4.59412 31.0668C4.66598 31.3239 4.79612 31.5466 4.98374 31.7358L5.29033 31.973C5.52666 32.1103 5.78215 32.1789 6.0552 32.1797C6.21169 32.1797 6.34582 32.1781 6.51428 32.1254L6.52786 32.1231L6.88953 31.9706C7.06837 31.8763 7.11947 31.8245 7.20889 31.7191C7.3542 31.5841 7.4572 31.4237 7.51708 31.2392C7.61049 31.0612 7.6536 30.8696 7.64562 30.6644L7.64642 30.6636Z" fill="#F8F9FA"/>
<path d="M37.9972 0.298314C36.438 -0.336416 34.525 0.239232 33.4799 1.53584C32.5226 2.72386 32.4084 4.37177 32.9426 5.77057C33.2707 6.63125 33.8352 7.38175 34.4731 8.03803C34.7829 8.3566 35.1086 8.66638 35.4663 8.93145C35.7921 9.17257 36.1106 9.4576 36.5082 9.53744C36.7182 9.6564 37 9.6564 37.2252 9.5542C37.6787 9.34821 37.8551 8.82366 38.0667 8.4045C38.2887 7.96698 38.5194 7.53424 38.7509 7.10151C39.1813 6.29512 39.6292 5.46558 39.8424 4.56977C40.236 2.91388 39.6803 0.983344 37.9972 0.298314ZM38.0803 4.38294C37.8879 5.14462 37.5278 5.84402 37.1901 6.54821C37 6.94422 36.806 7.33863 36.6072 7.73065C36.533 7.87756 36.4563 8.01728 36.3901 8.1562C36.2072 7.96777 36.0244 7.78175 35.836 7.59811C35.3793 7.15261 34.9505 6.67835 34.6144 6.13304C34.042 5.2053 33.7018 3.97576 34.1673 2.92905C34.4004 2.4053 34.8731 2.06119 35.412 1.9055C35.9549 1.74901 36.5705 1.64921 37.1238 1.80091C38.2392 2.1075 38.3174 3.44243 38.0803 4.38135V4.38294Z" fill="#F8F9FA"/>
<path d="M36.7249 3.81302C36.6937 3.70205 36.6378 3.60544 36.5564 3.524L36.4239 3.42181C36.3217 3.36272 36.2115 3.33239 36.0933 3.33239C36.0031 3.32919 35.9193 3.34756 35.841 3.38907C35.7596 3.41542 35.6893 3.46093 35.6303 3.5248C35.5664 3.58388 35.5209 3.65414 35.4945 3.73558C35.4538 3.81382 35.4346 3.89765 35.4378 3.98787C35.4458 4.04616 35.4538 4.10364 35.461 4.16193C35.4921 4.2729 35.548 4.36951 35.6295 4.45095L35.762 4.55314C35.8642 4.61223 35.9744 4.64256 36.0925 4.64256C36.1828 4.64576 36.2666 4.6274 36.3448 4.58588C36.4263 4.55953 36.4965 4.51402 36.5556 4.45015C36.6195 4.39107 36.665 4.32081 36.6913 4.23937C36.7321 4.16113 36.7512 4.0773 36.748 3.98708C36.74 3.92879 36.7321 3.87131 36.7249 3.81302Z" fill="#F8F9FA"/>
<path d="M34.2197 22.0497C33.6025 19.4037 31.1658 17.8948 28.7378 17.1355C26.0536 16.2964 23.2025 16.1127 20.4097 15.9954C17.7023 15.882 14.9606 15.8716 12.3586 15.2696C11.7359 15.1251 11.1091 14.9383 10.5933 14.6732C10.0273 14.3818 9.73905 14.179 9.34304 13.7511C9.03485 13.4181 8.82408 13.062 8.70751 12.5966C8.65481 12.3866 8.63645 12.2341 8.64364 11.9403C8.65002 11.6824 8.68356 11.4796 8.77937 11.1562C9.42208 8.9782 12.0185 7.69756 14.0281 6.82491C16.2652 5.85405 18.6564 5.35984 21.0564 5.24726C23.5323 5.13069 25.937 5.34946 28.2979 5.96263C28.9007 6.11912 29.5187 6.20774 30.1295 6.3283C30.9941 6.49916 31.5722 5.33988 30.7498 4.85764C28.5047 3.54267 25.763 3.08279 23.1889 3.01493C20.6165 2.94786 18.0744 3.35904 15.6097 4.0776C13.1626 4.79137 10.6061 5.8796 8.67078 7.57461C6.64044 9.35185 5.57138 12.4425 7.28316 14.8105C8.99653 17.1802 11.9826 17.7016 14.7027 18.0337C17.482 18.373 20.2883 18.3602 23.0748 18.6149C24.4161 18.7371 25.6616 18.9159 27.0285 19.2696C27.6368 19.4269 28.2341 19.6153 28.8201 19.8405C28.8408 19.8485 28.8544 19.8532 28.864 19.8572C28.9191 19.8812 28.9742 19.9059 29.0285 19.9307C29.1594 19.9906 29.2887 20.0536 29.4165 20.1199C29.6887 20.2604 29.953 20.4145 30.2069 20.587C30.2428 20.6117 30.381 20.7115 30.3897 20.7155C30.4816 20.7898 30.5718 20.8672 30.6588 20.9471C30.7618 21.0421 30.8616 21.1403 30.9566 21.2425C31.0053 21.2944 31.1889 21.5315 31.1642 21.4892C31.3023 21.6896 31.4269 21.898 31.5307 22.1175C31.5283 22.1207 31.5929 22.282 31.6073 22.3283C31.6576 22.4824 31.6983 22.6397 31.7319 22.7986C31.7446 22.86 31.755 22.9215 31.7654 22.9838C31.7654 22.9878 31.7654 22.991 31.7654 22.9958C31.767 23.1379 31.7854 23.2808 31.7862 23.4237C31.7869 23.5674 31.7814 23.7103 31.771 23.854C31.7686 23.8884 31.7646 23.9227 31.7614 23.957C31.7582 23.977 31.747 24.0624 31.7366 24.1191C31.6864 24.3834 31.6185 24.6445 31.5323 24.9C31.5059 24.9782 31.4772 25.0556 31.4476 25.1331C31.3838 25.2752 31.3135 25.4149 31.2376 25.5515C31.1674 25.6784 31.0931 25.8022 31.0133 25.9235C30.9806 25.973 30.856 26.1455 30.8249 26.1902C30.8017 26.2173 30.7722 26.2532 30.7706 26.2556C30.7155 26.3187 30.662 26.3818 30.6053 26.4441C30.5071 26.5519 30.4049 26.6564 30.2995 26.7578C30.1941 26.8592 30.0864 26.9574 29.9754 27.0532C29.9195 27.1012 29.862 27.1483 29.8053 27.1946C29.8053 27.1946 29.8045 27.1946 29.8037 27.1962C29.5498 27.3822 29.2863 27.5554 29.0133 27.7119C28.7754 27.8485 28.5311 27.9746 28.282 28.0896C28.2652 28.0976 28.1869 28.1327 28.1414 28.1534C28.1127 28.1654 28.0832 28.1782 28.0792 28.1798C27.9211 28.2413 27.763 28.3004 27.6033 28.3554C26.9885 28.567 26.3554 28.7203 25.7159 28.8337C25.5418 28.8648 25.367 28.8928 25.1913 28.9175C25.185 28.9183 25.181 28.9191 25.1754 28.9199C25.1634 28.9207 25.1418 28.9231 25.1059 28.9271C25.0309 28.9359 24.955 28.9447 24.88 28.9527C24.5023 28.9926 24.1231 29.0221 23.7438 29.0437C23.0341 29.0844 22.3235 29.098 21.6129 29.1059C20.183 29.1211 18.749 29.1107 17.3239 29.2433C17.4365 29.1507 17.5466 29.062 17.6528 28.9814C18.1526 28.599 18.674 28.27 19.1347 27.8389C19.8476 27.1714 19.1091 25.9131 18.179 26.1966C16.8424 26.6045 15.573 27.5858 14.5223 28.4864C13.4404 29.4133 12.1454 30.6125 12.5382 32.1982C12.7378 33.0053 13.3558 33.5858 14.1343 33.8357C14.7482 34.0329 15.4245 34.0113 16.06 34.0888C16.0153 34.0848 16.4049 34.1423 16.456 34.1511C16.5989 34.1758 16.7418 34.203 16.8848 34.2317C17.2177 34.2988 17.5474 34.3778 17.8748 34.4672C18.5766 34.6596 19.2528 34.9231 19.9506 35.1259C21.3311 35.5275 22.1917 33.5131 20.9311 32.801C20.2987 32.4441 19.6097 32.187 18.9031 31.9938C19.1722 31.9802 19.442 31.969 19.7111 31.9602C21.1315 31.9131 22.555 31.9147 23.973 31.7998C26.7738 31.573 29.5179 30.8888 31.7167 29.058C33.7327 27.379 34.8273 24.6437 34.2221 22.0513L34.2197 22.0497Z" fill="#F8F9FA"/>
</g>
<defs>
<clipPath id="clip0_1519_1837">
<rect width="40" height="40" fill="white"/>
</clipPath>
</defs>
</svg>
