<svg width="43" height="43" viewBox="0 0 43 43" fill="none" xmlns="http://www.w3.org/2000/svg">
<g clip-path="url(#clip0_1519_1832)">
<path d="M29.3989 5.31853C25.7571 1.45374 19.3833 0.293778 14.6237 2.62627C13.2529 3.29792 11.991 4.18058 11.0297 5.38497C10.1101 6.536 9.48777 7.85924 9.11025 9.27988C8.37416 12.0494 8.73986 15.0517 9.69324 17.7199C10.746 20.667 12.4282 23.3402 14.057 25.9924C15.7903 28.8134 17.5366 31.6263 19.2783 34.442C19.7097 35.1405 20.1473 35.8347 20.5849 36.5296C21.1096 37.3634 22.4022 37.6174 23.1938 37.0239C23.269 36.9674 23.339 36.9072 23.4041 36.8434C23.5881 36.905 23.7978 36.8888 23.9871 36.7506C26.246 35.1063 27.861 32.5925 29.1824 30.1633C30.5237 27.6975 31.4556 24.9647 32.0776 22.2313C32.716 19.4238 33.0496 16.4502 32.838 13.5724C32.6113 10.4907 31.53 7.58 29.3997 5.31927L29.3989 5.31853ZM29.5738 16.4786C29.5686 16.7921 29.5585 17.1051 29.5437 17.4185C29.5394 17.5061 29.5335 17.593 29.5301 17.6805C29.5229 17.8524 29.5345 17.6418 29.5369 17.5847C29.5313 17.7549 29.5129 17.9268 29.4984 18.096C29.4444 18.7516 29.3695 19.4047 29.2752 20.0552C29.0898 21.3335 28.8269 22.5995 28.4907 23.8459C28.322 24.4719 28.1304 25.0907 27.9282 25.7063C27.9029 25.7778 27.8783 25.8491 27.8529 25.9198C27.8015 26.0643 27.7493 26.2089 27.6955 26.3528C27.5812 26.6611 27.4621 26.9674 27.338 27.2724C26.3616 29.6774 25.215 32.0135 23.8486 34.2225C23.8013 34.2995 23.7564 34.3771 23.7107 34.4548C23.7016 34.4394 23.6925 34.4232 23.6827 34.4079C22.0178 31.7654 20.3199 29.1429 18.6321 26.5149C17.0293 24.0179 15.312 21.5625 13.9223 18.9361C13.8919 18.879 13.7658 18.6291 13.7661 18.6331C13.713 18.5247 13.6591 18.4164 13.6075 18.307C13.4539 17.9838 13.3111 17.6551 13.1769 17.3233C12.9092 16.6597 12.6757 15.9817 12.4891 15.29C12.4482 15.1384 12.4096 14.9865 12.3733 14.8337C12.3596 14.7738 12.3458 14.7139 12.3321 14.6548C12.2598 14.3411 12.3326 14.7084 12.3493 14.7416C12.2289 14.505 12.2383 14.0911 12.2071 13.8274C12.1331 13.2144 12.1026 12.5951 12.1201 11.9772C12.1222 11.9154 12.1243 11.8544 12.1263 11.7926C12.1366 11.4715 12.1131 11.8432 12.1189 11.8804C12.0964 11.7522 12.1445 11.5839 12.1593 11.4523C12.1939 11.1488 12.2407 10.8468 12.3012 10.5471C12.3611 10.2498 12.4347 9.95474 12.5215 9.66438C12.5319 9.63002 12.5745 9.54295 12.5755 9.50044C12.6241 9.37212 12.6734 9.24453 12.7277 9.11821C12.8383 8.86062 12.9612 8.60778 13.0966 8.36206C13.1646 8.23878 13.2419 8.12127 13.31 7.99878C13.31 7.99878 13.31 7.99878 13.3099 7.99798C13.3536 7.93647 13.3971 7.87417 13.4424 7.81334C13.6163 7.58096 13.8036 7.35804 14.0029 7.1471C14.1055 7.03902 14.2159 6.9384 14.3187 6.83112C14.3611 6.78651 14.3692 6.77713 14.3586 6.78508C14.4027 6.75317 14.4477 6.72279 14.4742 6.70172C14.7063 6.51491 14.9473 6.3403 15.1972 6.17867C15.3225 6.09783 15.4496 6.01927 15.5786 5.94459C15.6523 5.9018 15.7278 5.86208 15.8015 5.81929C15.8092 5.81475 15.8138 5.81203 15.8199 5.80839C16.3852 5.55344 16.9514 5.32405 17.5499 5.15647C17.6949 5.1159 17.84 5.07852 17.9862 5.04428C18.0247 5.03518 18.0538 5.02834 18.0774 5.02269C18.086 5.02128 18.0955 5.01982 18.1058 5.0175C18.4168 4.96452 18.7266 4.91723 19.0407 4.88645C19.5747 4.8355 20.1064 4.83195 20.6413 4.84981C20.6823 4.85335 20.7232 4.85689 20.7642 4.86043C20.917 4.87537 21.0692 4.89276 21.2208 4.91339C21.5055 4.95194 21.7893 5.00177 22.0707 5.06138C22.3333 5.11669 22.5934 5.18098 22.8518 5.25421C22.965 5.28633 23.0777 5.3217 23.1904 5.35626C23.2462 5.37799 23.3065 5.39459 23.3615 5.41557C23.8979 5.61591 24.4194 5.85572 24.9197 6.13386C25.1483 6.26043 25.3683 6.43724 25.6043 6.54567C25.5309 6.51156 25.4846 6.48997 25.4565 6.47672C25.5086 6.50191 25.6106 6.55484 25.6635 6.59278C25.8023 6.69279 25.9381 6.79541 26.0717 6.90138C26.4845 7.22969 26.8628 7.59163 27.2251 7.97472C27.2556 8.01183 27.2869 8.04808 27.3175 8.08518C27.4014 8.18823 27.4829 8.29224 27.5631 8.39875C27.7462 8.64221 27.9172 8.89373 28.076 9.1541C28.15 9.27546 28.2217 9.39858 28.2902 9.52271C28.3132 9.56516 28.3377 9.60749 28.3607 9.65073C28.3646 9.66007 28.3685 9.671 28.3751 9.68575C28.5086 10.0072 28.6567 10.3195 28.7747 10.6476C28.8846 10.9523 28.9822 11.2618 29.0679 11.5745C29.1172 11.7537 29.1602 11.934 29.204 12.1152C29.2164 12.1671 29.224 12.3668 29.2169 12.1631C29.2084 11.9154 29.2413 12.2943 29.2507 12.3497C29.4949 13.7165 29.592 15.0935 29.5708 16.4812L29.5738 16.4786Z" fill="#F8F9FA"/>
<path d="M25.4608 6.4759C25.4253 6.45842 25.4137 6.45363 25.4608 6.4759Z" fill="#F8F9FA"/>
<path d="M21.9389 9.37206C21.7401 9.37394 21.5547 9.44136 21.3963 9.55095C21.3549 9.50739 21.3037 9.47173 21.2427 9.44477C20.5169 9.12874 19.7901 9.01619 19.019 9.24069C18.2895 9.45347 17.578 9.91404 17.1293 10.5332C16.1255 11.9184 16.0727 13.8256 16.994 15.2692C17.8606 16.6276 19.6125 17.4533 21.2106 17.199C23.0062 16.9133 24.4804 15.6186 24.9734 13.8615C25.5456 11.821 24.2035 9.35064 21.9397 9.372L21.9389 9.37206ZM22.5939 13.1766C22.5952 13.1717 22.5775 13.2394 22.5684 13.2793C22.555 13.3171 22.5325 13.3827 22.5338 13.3786C22.4742 13.5205 22.4054 13.6559 22.3284 13.7886C22.3284 13.7886 22.3284 13.7894 22.3277 13.7903C22.2971 13.8316 22.2656 13.8731 22.2333 13.913C22.159 14.0047 22.0788 14.0912 21.9952 14.1747C21.9948 14.1699 21.8615 14.2849 21.825 14.3115C21.7186 14.3886 21.6069 14.4597 21.4924 14.5238C21.4396 14.5459 21.3869 14.5688 21.334 14.5893C21.2243 14.6314 21.1133 14.6656 21.0013 14.6974C21.0567 14.6784 20.8057 14.7328 20.743 14.7387C20.6304 14.7498 20.5188 14.7536 20.4062 14.7535C20.3602 14.7479 20.3135 14.7415 20.2674 14.7344C20.1543 14.7158 20.0439 14.6899 19.9331 14.66C19.9866 14.6707 19.7419 14.5869 19.6923 14.5631C19.5899 14.5151 19.491 14.4603 19.3935 14.4023C19.3507 14.3716 19.3086 14.3409 19.2672 14.3086C19.1725 14.2343 19.0838 14.154 18.998 14.0695C19.0311 14.0961 18.868 13.9113 18.8378 13.8685C18.8049 13.8212 18.7744 13.7729 18.7431 13.7246C18.744 13.7261 18.7183 13.6783 18.7002 13.6475C18.6859 13.6149 18.6622 13.5621 18.6631 13.5636C18.6424 13.5074 18.621 13.4528 18.6019 13.3965C18.5828 13.3402 18.5661 13.2837 18.5493 13.2264C18.5326 13.1699 18.5256 13.1496 18.5235 13.1433C18.5255 13.1488 18.5319 13.1604 18.5259 13.1095C18.5113 12.9912 18.4999 12.8735 18.4963 12.7536C18.4953 12.7049 18.4942 12.6553 18.4955 12.6063C18.4965 12.5967 18.4988 12.5837 18.5008 12.5667C18.5157 12.4488 18.5363 12.332 18.5633 12.2164C18.6035 12.0478 18.5977 12.0682 18.6691 11.9127C18.8571 11.5055 19.179 11.1403 19.6074 10.9045C19.9867 10.6962 20.4421 10.5274 20.884 10.4957C20.8781 11.0735 21.247 11.4826 21.7929 11.6478C21.6199 11.5958 21.8722 11.6855 21.9241 11.7075C21.9759 11.7295 22.0277 11.7507 22.0782 11.776C22.0931 11.783 22.1597 11.8224 22.1988 11.8437C22.2207 11.8605 22.2443 11.8781 22.2469 11.8803C22.2879 11.9191 22.3312 11.9561 22.3732 11.9956C22.374 11.9964 22.3749 11.9971 22.3757 11.9979C22.4154 12.0511 22.452 12.1062 22.4916 12.1595C22.5164 12.1938 22.5311 12.2096 22.5395 12.2162C22.5412 12.2281 22.5458 12.2486 22.5561 12.2823C22.578 12.3545 22.6051 12.4223 22.6254 12.4953C22.6259 12.5025 22.6272 12.5096 22.6286 12.5183C22.6372 12.5842 22.6409 12.6496 22.6472 12.7156C22.647 12.7132 22.6489 12.7756 22.6509 12.8155C22.648 12.8541 22.6442 12.9136 22.6442 12.9136C22.6312 13.0018 22.6133 13.088 22.5954 13.1749L22.5939 13.1766Z" fill="#F8F9FA"/>
<path d="M38.5879 33.214C38.3023 32.2361 37.4905 31.5024 36.6251 31.028C35.7463 30.5457 34.708 30.2852 33.7164 30.1775C32.5929 30.0559 31.3195 30.008 30.2761 30.4958C29.2505 30.9759 29.5065 32.4556 30.6817 32.4583C31.4406 32.4604 32.2894 32.3194 32.9886 32.3682C33.7085 32.418 34.5304 32.5887 35.0922 32.8209C35.2534 32.8873 35.412 32.9619 35.5656 33.0449C35.6336 33.0818 35.701 33.1203 35.767 33.1606C35.7261 33.1362 35.6267 33.051 35.8122 33.191C35.9336 33.2826 36.0467 33.3796 36.1585 33.4831C36.3251 33.6381 36.2185 33.5518 36.1885 33.5123C36.2474 33.5882 36.3007 33.6654 36.3511 33.7468C36.3212 33.7072 36.3945 33.8759 36.4323 33.9717C36.4147 33.9713 36.438 34.258 36.4528 34.1849C36.4222 34.4665 36.3005 34.7361 36.1868 34.893C35.8233 35.3941 35.1742 35.7871 34.6615 36.0391C33.8923 36.4165 33.0952 36.7373 32.2855 37.0149C30.7144 37.5524 29.1208 37.9169 27.5159 38.1997C23.9763 38.8236 20.3897 39.1641 16.7982 39.2735C15.2479 39.3211 13.872 39.326 12.3972 39.0711C11.0381 38.8362 9.62854 38.4287 8.60307 37.5626C8.10727 37.1432 7.63682 36.6179 7.70578 35.9364C7.76053 35.3944 8.19175 34.8445 8.64513 34.4973C9.29945 33.9967 10.071 33.6761 10.86 33.4559C11.7758 33.2005 12.7279 33.2108 13.6445 32.9769C13.9953 32.8875 14.0067 32.3422 13.6909 32.2017C12.8031 31.8073 11.805 31.8811 10.8662 32.0605C9.95185 32.2349 9.06936 32.5224 8.25262 32.9736C6.74374 33.807 5.5819 35.3314 6.00778 37.1267C6.41999 38.8637 8.13532 40.0002 9.68241 40.6384C11.3866 41.3417 13.2487 41.527 15.0749 41.5755C19.0856 41.681 23.1462 41.2657 27.0968 40.6019C29.0349 40.2758 30.9728 39.8776 32.8407 39.2545C33.7648 38.9456 34.6706 38.5803 35.5436 38.1453C36.4049 37.7151 37.2706 37.2213 37.8738 36.4464C38.5928 35.5232 38.9244 34.3596 38.5895 33.2138L38.5879 33.214Z" fill="#F8F9FA"/>
</g>
<defs>
<clipPath id="clip0_1519_1832">
<rect width="40" height="40" fill="white" transform="translate(0 2.79102) rotate(-4)"/>
</clipPath>
</defs>
</svg>
